<svg width="192" height="64" viewBox="0 0 192 64" fill="none" xmlns="http://www.w3.org/2000/svg">
<path d="M176.208 0H15.248C14.672 0 14.096 0 13.504 0C13.008 0 12.528 0.016 12.032 0.016C10.96 0.032 9.888 0.128 8.832 0.304C7.776 0.48 6.752 0.816 5.792 1.312C4.832 1.792 3.952 2.432 3.2 3.2C2.432 3.952 1.792 4.832 1.312 5.792C0.832 6.752 0.496 7.776 0.32 8.832C0.144 9.888 0.048 10.96 0.032 12.032C0.016 12.528 0 13.024 0 13.504V50.48C0 50.976 0.016 51.456 0.032 51.952C0.048 53.024 0.144 54.096 0.32 55.152C0.496 56.208 0.832 57.248 1.312 58.192C1.792 59.152 2.432 60.016 3.2 60.768C3.952 61.536 4.832 62.16 5.792 62.656C6.752 63.136 7.776 63.488 8.832 63.664C9.888 63.84 10.96 63.936 12.032 63.952C12.528 63.984 13.008 64 13.504 64C14.096 64 14.672 64 15.248 64H176.208C176.784 64 177.36 64 177.936 64C178.416 64 178.928 64 179.408 63.984C180.48 63.968 181.552 63.872 182.608 63.696C183.664 63.52 184.704 63.168 185.664 62.688C186.624 62.208 187.488 61.568 188.256 60.8C189.024 60.048 189.648 59.168 190.144 58.224C190.624 57.264 190.96 56.24 191.136 55.184C191.312 54.128 191.408 53.056 191.44 51.984C191.44 51.488 191.44 51.008 191.44 50.512C191.456 49.936 191.456 49.36 191.456 48.768V15.264C191.456 14.672 191.456 14.096 191.44 13.52C191.44 13.024 191.44 12.544 191.44 12.048C191.424 10.976 191.328 9.904 191.136 8.848C190.96 7.792 190.624 6.768 190.144 5.808C189.152 3.888 187.584 2.32 185.664 1.328C184.704 0.848 183.68 0.512 182.608 0.32C181.552 0.144 180.48 0.048 179.408 0.032C178.928 0.032 178.416 0.016 177.936 0.016C177.376 0 176.784 0 176.208 0Z" fill="#A6A6A6"/>
<path d="M13.5041 62.6086C13.0241 62.6086 12.5441 62.6086 12.0641 62.5926C11.0561 62.5766 10.0641 62.4966 9.07209 62.3366C8.14409 62.1766 7.26409 61.8886 6.41609 61.4566C5.58409 61.0406 4.83209 60.4806 4.17609 59.8246C3.52009 59.1686 2.96009 58.4166 2.54409 57.5846C2.12809 56.7526 1.82409 55.8566 1.68009 54.9286C1.52009 53.9366 1.42409 52.9286 1.40809 51.9206C1.39209 51.5846 1.39209 50.4646 1.39209 50.4646V13.5046C1.39209 13.5046 1.40809 12.4006 1.40809 12.0806C1.44009 11.0726 1.52009 10.0806 1.68009 9.08856C1.84009 8.16056 2.12809 7.26456 2.56009 6.43256C2.97609 5.60056 3.52009 4.84856 4.19209 4.19256C4.83209 3.53656 5.60009 2.97656 6.41609 2.56056C7.24809 2.14456 8.14409 1.84056 9.05609 1.69656C10.0481 1.53656 11.0561 1.44056 12.0641 1.44056L13.5041 1.42456H177.936L179.392 1.44056C180.384 1.45656 181.376 1.53656 182.368 1.69656C183.296 1.85656 184.192 2.14456 185.04 2.57656C186.704 3.42456 188.048 4.78456 188.912 6.44856C189.328 7.28056 189.616 8.17656 189.776 9.08856C189.936 10.0806 190.032 11.0886 190.048 12.1126C190.048 12.5606 190.048 13.0566 190.048 13.5366C190.064 14.1446 190.064 14.7046 190.064 15.2806V48.7686C190.064 49.3446 190.064 49.9206 190.048 50.4966C190.048 51.0246 190.048 51.4886 190.048 51.9846C190.032 52.9766 189.936 53.9686 189.776 54.9446C189.632 55.8726 189.328 56.7686 188.912 57.6166C188.496 58.4326 187.936 59.1846 187.28 59.8406C186.624 60.4966 185.872 61.0566 185.04 61.4726C184.192 61.9046 183.296 62.1926 182.368 62.3526C181.376 62.5126 180.384 62.6086 179.376 62.6086C178.912 62.6246 178.416 62.6246 177.936 62.6246H176.208L13.5041 62.6086Z" fill="black"/>
<path d="M39.6318 32.4814C39.6638 29.7614 41.0878 27.2654 43.4078 25.8414C41.9358 23.7454 39.5678 22.4654 37.0238 22.3854C34.3358 22.0974 31.7278 23.9854 30.3678 23.9854C28.9758 23.9854 26.8638 22.4014 24.5918 22.4494C21.5998 22.5454 18.8958 24.2094 17.4398 26.8174C14.3518 32.1774 16.6558 40.0494 19.6158 44.3854C21.1038 46.5134 22.8318 48.8814 25.1038 48.7854C27.3278 48.6894 28.1598 47.3774 30.8318 47.3774C33.4878 47.3774 34.2558 48.7854 36.5758 48.7374C38.9598 48.7054 40.4638 46.6094 41.8878 44.4654C42.9598 42.9614 43.7758 41.2814 44.3198 39.5214C41.4718 38.3214 39.6318 35.5534 39.6318 32.4814Z" fill="white"/>
<path d="M35.264 19.5366C36.56 17.9846 37.2 15.9686 37.04 13.9526C35.056 14.1606 33.216 15.1046 31.904 16.6086C30.608 18.0806 29.952 20.0166 30.08 21.9846C32.096 22.0006 34 21.1046 35.264 19.5366Z" fill="white"/>
<path d="M67.6796 43.4259H60.1116L58.2876 48.8019H55.0876L62.2556 28.9299H65.5836L72.7516 48.8019H69.4876L67.6796 43.4259ZM60.8956 40.9459H66.8956L63.9356 32.2259H63.8556L60.8956 40.9459Z" fill="white"/>
<path d="M88.2559 41.5534C88.2559 46.0494 85.8399 48.9454 82.2079 48.9454C80.3359 49.0414 78.5599 48.0654 77.6479 46.4174H77.5839V53.5854H74.6079V34.3054H77.4879V36.7214H77.5359C78.4799 35.0894 80.2559 34.0974 82.1439 34.1614C85.8399 34.1614 88.2559 37.0574 88.2559 41.5534ZM85.1999 41.5534C85.1999 38.6254 83.6799 36.6894 81.3759 36.6894C79.1039 36.6894 77.5679 38.6574 77.5679 41.5534C77.5679 44.4654 79.1039 46.4334 81.3759 46.4334C83.6799 46.4334 85.1999 44.5134 85.1999 41.5534Z" fill="white"/>
<path d="M104.192 41.5534C104.192 46.0494 101.776 48.9454 98.1436 48.9454C96.2716 49.0414 94.4956 48.0654 93.5836 46.4174H93.5196V53.5854H90.5596V34.3054H93.4396V36.7214H93.4876C94.4316 35.0894 96.2076 34.0974 98.0956 34.1614C101.776 34.1614 104.192 37.0574 104.192 41.5534ZM101.136 41.5534C101.136 38.6254 99.6156 36.6894 97.3116 36.6894C95.0396 36.6894 93.5036 38.6574 93.5036 41.5534C93.5036 44.4654 95.0396 46.4334 97.3116 46.4334C99.6316 46.4334 101.136 44.5134 101.136 41.5534Z" fill="white"/>
<path d="M114.736 43.265C114.96 45.233 116.864 46.529 119.488 46.529C122 46.529 123.792 45.233 123.792 43.457C123.792 41.921 122.704 40.993 120.128 40.353L117.552 39.729C113.904 38.849 112.208 37.137 112.208 34.369C112.208 30.945 115.2 28.593 119.44 28.593C123.632 28.593 126.512 30.945 126.608 34.369H123.6C123.424 32.385 121.776 31.185 119.392 31.185C117.008 31.185 115.36 32.401 115.36 34.161C115.36 35.569 116.4 36.385 118.96 37.025L121.152 37.569C125.232 38.529 126.928 40.177 126.928 43.073C126.928 46.785 123.968 49.121 119.264 49.121C114.864 49.121 111.888 46.849 111.696 43.249L114.736 43.265Z" fill="white"/>
<path d="M133.36 30.8809V34.3049H136.112V36.6569H133.36V44.6409C133.36 45.8889 133.904 46.4649 135.12 46.4649C135.44 46.4649 135.776 46.4329 136.096 46.4009V48.7369C135.552 48.8329 134.992 48.8809 134.448 48.8809C131.52 48.8809 130.368 47.7769 130.368 44.9769V36.6729H128.256V34.3209H130.368V30.8809H133.36Z" fill="white"/>
<path d="M137.711 41.5539C137.711 36.9939 140.399 34.1299 144.575 34.1299C148.767 34.1299 151.439 36.9939 151.439 41.5539C151.439 46.1299 148.783 48.9779 144.575 48.9779C140.367 48.9779 137.711 46.1299 137.711 41.5539ZM148.415 41.5539C148.415 38.4339 146.975 36.5779 144.575 36.5779C142.175 36.5779 140.735 38.4339 140.735 41.5539C140.735 44.6899 142.159 46.5299 144.575 46.5299C146.991 46.5299 148.415 44.6899 148.415 41.5539Z" fill="white"/>
<path d="M153.903 34.3048H156.735V36.7688H156.799C157.199 35.1848 158.655 34.0968 160.287 34.1448C160.623 34.1448 160.975 34.1768 161.311 34.2568V37.0408C160.879 36.9128 160.431 36.8488 159.983 36.8648C158.335 36.8008 156.927 38.0808 156.863 39.7448C156.863 39.9048 156.863 40.0488 156.879 40.2088V48.8008H153.903V34.3048Z" fill="white"/>
<path d="M175.008 44.5459C174.608 47.1699 172.048 48.9779 168.768 48.9779C164.56 48.9779 161.936 46.1619 161.936 41.6179C161.936 37.0739 164.56 34.1299 168.64 34.1299C172.64 34.1299 175.168 36.8819 175.168 41.2819V42.3059H164.944V42.4819C164.768 44.5619 166.288 46.3859 168.368 46.5779C168.528 46.5939 168.688 46.5939 168.832 46.5939C170.272 46.7219 171.632 45.9059 172.176 44.5619L175.008 44.5459ZM164.96 40.2099H172.208C172.32 38.2899 170.848 36.6419 168.928 36.5459C168.832 36.5459 168.752 36.5459 168.656 36.5459C166.624 36.5299 164.976 38.1619 164.96 40.1939V40.2099Z" fill="white"/>
<path d="M60.528 13.967C62.848 13.807 64.88 15.551 65.04 17.871C65.056 18.143 65.056 18.431 65.024 18.703C65.024 21.759 63.376 23.503 60.528 23.503H57.072V13.967H60.528ZM58.56 22.159H60.352C62 22.255 63.424 20.991 63.52 19.343C63.536 19.135 63.52 18.927 63.488 18.719C63.712 17.071 62.56 15.551 60.912 15.327C60.72 15.295 60.528 15.295 60.336 15.311H58.56V22.159Z" fill="white"/>
<path d="M66.6885 19.9031C66.5125 18.0311 67.8885 16.3671 69.7605 16.1751C71.6325 15.9991 73.2965 17.3751 73.4885 19.2471C73.5045 19.4711 73.5045 19.6791 73.4885 19.9031C73.6645 21.7751 72.3045 23.4551 70.4165 23.6311C68.5445 23.8071 66.8645 22.4471 66.6885 20.5591C66.6725 20.3511 66.6725 20.1271 66.6885 19.9031ZM72.0165 19.9031C72.0165 18.3351 71.3125 17.4231 70.0805 17.4231C68.8485 17.4231 68.1445 18.3351 68.1445 19.9031C68.1445 21.4711 68.8325 22.3831 70.0805 22.3831C71.3285 22.3831 72.0165 21.4711 72.0165 19.9031Z" fill="white"/>
<path d="M82.5125 23.5191H81.0405L79.5525 18.2071H79.4405L77.9525 23.5191H76.4965L74.5125 16.3191H75.9525L77.2484 21.8231H77.3604L78.8484 16.3191H80.2085L81.6965 21.8231H81.8085L83.0885 16.3191H84.5125L82.5125 23.5191Z" fill="white"/>
<path d="M86.1597 16.3027H87.5357V17.4547H87.6477C88.0157 16.6067 88.8797 16.0947 89.7917 16.1747C91.0877 16.0787 92.2077 17.0387 92.3037 18.3347C92.3197 18.5107 92.3037 18.6867 92.2877 18.8467V23.5027H90.8637V19.1987C90.8637 18.0467 90.3677 17.4707 89.3117 17.4707C88.3997 17.4227 87.6317 18.1267 87.5837 19.0387C87.5837 19.1187 87.5837 19.2147 87.5837 19.2947V23.5027H86.1597V16.3027Z" fill="white"/>
<path d="M94.5439 13.5034H95.9679V23.5194H94.5439V13.5034Z" fill="white"/>
<path d="M97.9522 19.9031C97.7762 18.0311 99.1522 16.3671 101.024 16.1751C102.896 15.9991 104.56 17.3751 104.752 19.2471C104.768 19.4711 104.768 19.6791 104.752 19.9031C104.928 21.7751 103.568 23.4551 101.68 23.6311C99.7922 23.8071 98.1282 22.4471 97.9522 20.5591C97.9202 20.3511 97.9202 20.1271 97.9522 19.9031ZM103.28 19.9031C103.28 18.3351 102.576 17.4231 101.344 17.4231C100.112 17.4231 99.4082 18.3351 99.4082 19.9031C99.4082 21.4711 100.096 22.3831 101.344 22.3831C102.576 22.3831 103.28 21.4711 103.28 19.9031Z" fill="white"/>
<path d="M106.24 21.4713C106.24 20.1753 107.2 19.4233 108.912 19.3273L110.864 19.2153V18.5913C110.864 17.8233 110.368 17.4073 109.392 17.4073C108.592 17.4073 108.048 17.6953 107.888 18.2073H106.512C106.656 16.9753 107.824 16.1753 109.456 16.1753C111.264 16.1753 112.288 17.0713 112.288 18.5913V23.5193H110.912V22.5113H110.8C110.336 23.2473 109.504 23.6793 108.64 23.6473C107.44 23.7753 106.368 22.8953 106.256 21.7113C106.24 21.6153 106.24 21.5513 106.24 21.4713ZM110.88 20.8633V20.2553L109.12 20.3673C108.128 20.4313 107.68 20.7673 107.68 21.4073C107.68 22.0633 108.24 22.4313 109.008 22.4313C109.936 22.5273 110.768 21.8393 110.864 20.9113C110.864 20.8953 110.864 20.8793 110.88 20.8633Z" fill="white"/>
<path d="M114.16 19.9034C114.16 17.6314 115.328 16.1914 117.152 16.1914C118.064 16.1434 118.928 16.6394 119.36 17.4554H119.472V13.5034H120.896V23.5194H119.52V22.3834H119.408C118.944 23.1834 118.08 23.6794 117.152 23.6474C115.312 23.6314 114.16 22.1914 114.16 19.9034ZM115.632 19.9034C115.632 21.4394 116.352 22.3514 117.552 22.3514C118.752 22.3514 119.488 21.4234 119.488 19.9034C119.488 18.3994 118.736 17.4554 117.552 17.4554C116.352 17.4714 115.632 18.3994 115.632 19.9034Z" fill="white"/>
<path d="M126.768 19.9027C126.592 18.0307 127.968 16.3667 129.84 16.1747C131.712 15.9827 133.376 17.3747 133.568 19.2467C133.584 19.4707 133.584 19.6787 133.568 19.9027C133.744 21.7747 132.384 23.4547 130.496 23.6307C128.624 23.8067 126.944 22.4467 126.768 20.5587C126.752 20.3507 126.752 20.1267 126.768 19.9027ZM132.096 19.9027C132.096 18.3347 131.392 17.4227 130.16 17.4227C128.928 17.4227 128.224 18.3347 128.224 19.9027C128.224 21.4707 128.912 22.3827 130.16 22.3827C131.392 22.3827 132.096 21.4707 132.096 19.9027Z" fill="white"/>
<path d="M135.472 16.3027H136.848V17.4547H136.96C137.328 16.6067 138.192 16.0947 139.104 16.1747C140.4 16.0787 141.52 17.0387 141.616 18.3347C141.632 18.5107 141.616 18.6867 141.6 18.8467V23.5027H140.176V19.1987C140.176 18.0467 139.68 17.4707 138.624 17.4707C137.712 17.4227 136.944 18.1267 136.896 19.0387C136.896 19.1187 136.896 19.2147 136.896 19.2947V23.5027H135.472V16.3027Z" fill="white"/>
<path d="M149.632 14.5122V16.3362H151.2V17.5362H149.632V21.2482C149.632 22.0002 149.936 22.3362 150.656 22.3362C150.832 22.3362 151.024 22.3202 151.2 22.3042V23.4882C150.944 23.5362 150.688 23.5522 150.432 23.5682C148.848 23.5682 148.224 23.0082 148.224 21.6162V17.5522H147.088V16.3522H148.224V14.5122H149.632Z" fill="white"/>
<path d="M153.12 13.5034H154.528V17.4714H154.64C155.024 16.6234 155.904 16.1114 156.832 16.1754C158.144 16.1114 159.264 17.1034 159.328 18.4154C159.344 18.5594 159.328 18.7194 159.312 18.8634V23.5194H157.888V19.2154C157.888 18.0634 157.36 17.4874 156.352 17.4874C155.424 17.4074 154.608 18.0954 154.544 19.0234C154.544 19.1194 154.544 19.2154 154.544 19.3114V23.5194H153.12V13.5034Z" fill="white"/>
<path d="M167.616 21.5673C167.216 22.9273 165.904 23.8073 164.496 23.6473C162.688 23.6953 161.184 22.2713 161.136 20.4633C161.136 20.2873 161.136 20.1113 161.168 19.9353C160.928 18.1113 162.208 16.4473 164.016 16.2073C164.176 16.1913 164.336 16.1753 164.48 16.1753C166.48 16.1753 167.696 17.5513 167.696 19.8073V20.3033H162.608V20.3833C162.512 21.4393 163.296 22.3513 164.352 22.4473C164.416 22.4473 164.48 22.4473 164.528 22.4473C165.216 22.5273 165.904 22.1913 166.24 21.5673H167.616ZM162.624 19.2473H166.256C166.32 18.2873 165.616 17.4553 164.656 17.3913C164.592 17.3913 164.544 17.3913 164.48 17.3913C163.456 17.3753 162.624 18.1913 162.608 19.2153C162.624 19.2153 162.624 19.2313 162.624 19.2473Z" fill="white"/>
</svg>
