<svg width="216" height="64" viewBox="0 0 216 64" fill="none" xmlns="http://www.w3.org/2000/svg">
<g clip-path="url(#clip0_2_24824)">
<path d="M208 64H8C3.6 64 0 60.4 0 56V7.99999C0 3.59998 3.6 -1.64509e-05 8 -1.64509e-05H208C212.4 -1.64509e-05 216 3.59998 216 7.99999V56C216 60.4 212.4 64 208 64Z" fill="#100F0D"/>
<path d="M208 -1.64509e-05H8C3.6 -1.64509e-05 0 3.59998 0 7.99999V56C0 60.4 3.6 64 8 64H208C212.4 64 216 60.4 216 56V7.99999C216 3.59998 212.4 -1.64509e-05 208 -1.64509e-05ZM208 1.27934C211.706 1.27934 214.72 4.29438 214.72 7.99999V56C214.72 59.7056 211.706 62.7206 208 62.7206H8C4.29437 62.7206 1.28063 59.7056 1.28063 56V7.99999C1.28063 4.29438 4.29437 1.27934 8 1.27934H208Z" fill="#A2A2A1"/>
<path d="M75.7882 15.6725H71.1432V16.8225H74.6232C74.5306 17.76 74.1557 18.4974 73.5256 19.0325C72.8957 19.5675 72.0931 19.835 71.1432 19.835C70.0981 19.835 69.2131 19.475 68.4906 18.7525C67.7806 18.015 67.4206 17.1049 67.4206 16.0075C67.4206 14.9075 67.7806 13.9974 68.4906 13.2625C69.2131 12.5374 70.0981 12.1774 71.1432 12.1774C71.6781 12.1774 72.1856 12.2699 72.6557 12.4725C73.1232 12.6725 73.4981 12.9525 73.7931 13.315L74.6757 12.4325C74.2757 11.9774 73.7656 11.6275 73.1381 11.3725C72.5082 11.12 71.8506 11 71.1432 11C69.7506 11 68.5706 11.48 67.6082 12.445C66.6432 13.4099 66.1606 14.6 66.1606 16.0075C66.1606 17.4125 66.6432 18.605 67.6082 19.5675C68.5706 20.5325 69.7506 21.015 71.1432 21.015C72.6006 21.015 73.7656 20.5449 74.6632 19.595C75.4531 18.8049 75.8557 17.735 75.8557 16.395C75.8557 16.1675 75.8282 15.925 75.7882 15.6725ZM77.6387 11.2125V20.8H83.2338V19.6225H78.8688V16.5825H82.8062V15.4299H78.8688V12.3925H83.2338V11.2125H77.6387ZM91.1181 12.3925V11.2125H84.5306V12.3925H87.2082V20.8H88.4381V12.3925H91.1181ZM97.1294 11.2125H95.8994V20.8H97.1294V11.2125ZM105.277 12.3925V11.2125H98.6901V12.3925H101.368V20.8H102.597V12.3925H105.277ZM117.755 12.4574C116.805 11.48 115.64 11 114.248 11C112.855 11 111.69 11.48 110.74 12.445C109.79 13.395 109.32 14.5875 109.32 16.0075C109.32 17.4249 109.79 18.6174 110.74 19.5675C111.69 20.5325 112.855 21.015 114.248 21.015C115.628 21.015 116.805 20.5325 117.755 19.5675C118.708 18.6174 119.175 17.4249 119.175 16.0075C119.175 14.6 118.708 13.4099 117.755 12.4574ZM111.623 13.2625C112.332 12.5374 113.203 12.1774 114.248 12.1774C115.292 12.1774 116.163 12.5374 116.86 13.2625C117.568 13.9725 117.917 14.895 117.917 16.0075C117.917 17.1174 117.568 18.0426 116.86 18.7525C116.163 19.475 115.292 19.835 114.248 19.835C113.203 19.835 112.332 19.475 111.623 18.7525C110.928 18.0275 110.58 17.1174 110.58 16.0075C110.58 14.895 110.928 13.9849 111.623 13.2625ZM122.15 14.8275L122.097 12.98H122.15L127.025 20.8H128.31V11.2125H127.077V16.8225L127.132 18.6699H127.077L122.417 11.2125H120.92V20.8H122.15V14.8275Z" fill="white" stroke="white" stroke-width="0.32" stroke-miterlimit="10"/>
<path d="M171.098 48H174.083V27.9974H171.098V48ZM197.989 35.2032L194.566 43.875H194.464L190.912 35.2032H187.696L193.024 47.3232L189.986 54.0656H193.099L201.309 35.2032H197.989ZM181.056 45.7282C180.08 45.7282 178.715 45.2387 178.715 44.0294C178.715 42.4856 180.414 41.8938 181.88 41.8938C183.192 41.8938 183.811 42.1763 184.608 42.5626C184.376 44.4157 182.781 45.7282 181.056 45.7282ZM181.418 34.7656C179.256 34.7656 177.018 35.7181 176.091 37.8282L178.741 38.9344C179.307 37.8282 180.362 37.4682 181.469 37.4682C183.013 37.4682 184.582 38.3938 184.608 40.0413V40.2469C184.067 39.9381 182.909 39.475 181.494 39.475C178.637 39.475 175.73 41.0443 175.73 43.9781C175.73 46.6544 178.072 48.3788 180.696 48.3788C182.702 48.3788 183.811 47.4781 184.504 46.4226H184.608V47.9675H187.491V40.2981C187.491 36.7469 184.838 34.7656 181.418 34.7656ZM162.966 37.6381H158.72V30.7819H162.966C165.198 30.7819 166.466 32.6294 166.466 34.2099C166.466 35.76 165.198 37.6381 162.966 37.6381ZM162.89 27.9974H155.736V48H158.72V40.4219H162.89C166.198 40.4219 169.451 38.0269 169.451 34.2099C169.451 30.3938 166.198 27.9974 162.89 27.9974ZM123.879 45.7318C121.817 45.7318 120.091 44.0043 120.091 41.6338C120.091 39.2357 121.817 37.4837 123.879 37.4837C125.916 37.4837 127.514 39.2357 127.514 41.6338C127.514 44.0043 125.916 45.7318 123.879 45.7318ZM127.308 36.3232H127.204C126.534 35.5243 125.245 34.8026 123.622 34.8026C120.219 34.8026 117.1 37.7931 117.1 41.6338C117.1 45.4482 120.219 48.4125 123.622 48.4125C125.245 48.4125 126.534 47.6906 127.204 46.8662H127.308V47.845C127.308 50.4494 125.916 51.8406 123.673 51.8406C121.844 51.8406 120.709 50.5263 120.245 49.4181L117.642 50.5006C118.389 52.3044 120.373 54.5219 123.673 54.5219C127.179 54.5219 130.144 52.4594 130.144 47.4325V35.215H127.308V36.3232ZM132.206 48H135.195V27.9974H132.206V48ZM139.603 41.4013C139.526 38.7718 141.641 37.4318 143.161 37.4318C144.347 37.4318 145.351 38.025 145.688 38.875L139.603 41.4013ZM148.883 39.1325C148.316 37.6125 146.589 34.8026 143.057 34.8026C139.551 34.8026 136.639 37.5606 136.639 41.6075C136.639 45.4226 139.526 48.4125 143.392 48.4125C146.511 48.4125 148.316 46.5056 149.064 45.3968L146.744 43.8499C145.97 44.9843 144.914 45.7318 143.392 45.7318C141.872 45.7318 140.789 45.0357 140.094 43.6694L149.192 39.9062L148.883 39.1325ZM76.3901 36.8906V39.7774H83.2981C83.0919 41.4013 82.5506 42.5869 81.7256 43.4118C80.72 44.4168 79.1475 45.5256 76.3901 45.5256C72.1368 45.5256 68.8119 42.0974 68.8119 37.8443C68.8119 33.5912 72.1368 30.1626 76.3901 30.1626C78.6843 30.1626 80.3594 31.065 81.5968 32.225L83.6338 30.1882C81.9063 28.5387 79.6125 27.2757 76.3901 27.2757C70.5637 27.2757 65.6663 32.0187 65.6663 37.8443C65.6663 43.6694 70.5637 48.4125 76.3901 48.4125C79.5344 48.4125 81.9063 47.3813 83.7619 45.4482C85.6695 43.5406 86.2626 40.86 86.2626 38.6944C86.2626 38.025 86.2106 37.4062 86.1075 36.8906H76.3901ZM94.1163 45.7318C92.0538 45.7318 90.2751 44.0306 90.2751 41.6075C90.2751 39.1587 92.0538 37.4837 94.1163 37.4837C96.1781 37.4837 97.9568 39.1587 97.9568 41.6075C97.9568 44.0306 96.1781 45.7318 94.1163 45.7318ZM94.1163 34.8026C90.3519 34.8026 87.285 37.6637 87.285 41.6075C87.285 45.5256 90.3519 48.4125 94.1163 48.4125C97.8794 48.4125 100.947 45.5256 100.947 41.6075C100.947 37.6637 97.8794 34.8026 94.1163 34.8026ZM109.017 45.7318C106.956 45.7318 105.176 44.0306 105.176 41.6075C105.176 39.1587 106.956 37.4837 109.017 37.4837C111.079 37.4837 112.857 39.1587 112.857 41.6075C112.857 44.0306 111.079 45.7318 109.017 45.7318ZM109.017 34.8026C105.254 34.8026 102.187 37.6637 102.187 41.6075C102.187 45.5256 105.254 48.4125 109.017 48.4125C112.781 48.4125 115.848 45.5256 115.848 41.6075C115.848 37.6637 112.781 34.8026 109.017 34.8026Z" fill="white"/>
<path d="M33.1475 31.0787L16.1131 49.1587C16.1137 49.1625 16.115 49.1656 16.1157 49.1694C16.6381 51.1325 18.4312 52.5781 20.5593 52.5781C21.4101 52.5781 22.2088 52.3481 22.8937 51.9444L22.9481 51.9125L42.1225 40.8482L33.1475 31.0787Z" fill="#EB3131"/>
<path d="M50.3813 28L50.3649 27.9888L42.0869 23.1899L32.7606 31.4888L42.1193 40.8463L50.3537 36.0951C51.7974 35.3157 52.7774 33.7938 52.7774 32.0387C52.7774 30.2963 51.8105 28.7819 50.3813 28Z" fill="#F6B60B"/>
<path d="M16.1125 14.8437C16.0101 15.2213 15.9562 15.6168 15.9562 16.0275V47.9757C15.9562 48.3856 16.0094 48.7825 16.1131 49.1588L33.7337 31.5413L16.1125 14.8437Z" fill="#5778C5"/>
<path d="M33.2731 32.0013L42.0901 23.1869L22.9374 12.0826C22.2413 11.6656 21.4288 11.425 20.5594 11.425C18.4312 11.425 16.6357 12.8731 16.1131 14.8387C16.1125 14.8406 16.1125 14.8419 16.1125 14.8437L33.2731 32.0013Z" fill="#3BAD49"/>
</g>
<defs>
<clipPath id="clip0_2_24824">
<rect width="216" height="64" fill="white"/>
</clipPath>
</defs>
</svg>
